<svg xmlns="http://www.w3.org/2000/svg" style="display: none;">

<symbol id="envelope" viewBox="90 40 20 20" fill="#ffffff">
	<path d="M100,52.5c-0.3,0-0.8-0.2-1.2-0.5c-0.3-0.2-0.7-0.4-1.2-0.9l-0.4-0.3c-3.2-2.3-5.4-4-6.5-4.8l-0.3-0.2
		c-0.2-0.2-0.4-0.4-0.4-0.7v-0.7c0-0.5,0.2-1,0.5-1.3c0.4-0.4,0.8-0.5,1.3-0.5H108c0.5,0,1,0.2,1.3,0.5c0.4,0.4,0.5,0.8,0.5,1.3v0.7
		c0,0.3,0,0.7-0.3,0.9s-3.3,2.5-6.6,4.9l-0.4,0.3c-0.5,0.4-0.9,0.7-1.2,0.9C100.8,52.3,100.3,52.5,100,52.5z M109.6,47.5
		c-0.9,0.7-2.9,2.2-6,4.4l-0.4,0.3c-0.6,0.5-1.1,0.8-1.5,1c-0.6,0.4-1.2,0.5-1.7,0.5s-1.1-0.2-1.7-0.5c-0.4-0.2-0.9-0.5-1.5-1
		l-0.4-0.4c-3.2-2.3-5.2-3.8-6-4.4c-0.1-0.1-0.2-0.1-0.3,0c-0.1,0-0.1,0.1-0.1,0.2v8c0,0.5,0.2,1,0.5,1.3c0.4,0.4,0.8,0.5,1.3,0.5
		H108c0.5,0,1-0.2,1.3-0.5c0.4-0.4,0.5-0.8,0.5-1.3v-8c0-0.1,0-0.2-0.1-0.2C109.8,47.4,109.7,47.4,109.6,47.5z"/>
</symbol>
<symbol id="mobile" viewBox="90 20 20 20" fill="#ffffff">
		<path d="M104.2,20.5c0.5,0,0.9,0.2,1.3,0.5s0.5,0.8,0.5,1.3v15.4c0,0.5-0.2,0.9-0.5,1.3c-0.3,0.3-0.8,0.5-1.3,0.5h-8.3
		c-0.5,0-0.9-0.2-1.3-0.5c-0.3-0.3-0.5-0.8-0.5-1.3V22.3c0-0.5,0.2-0.9,0.5-1.3s0.8-0.5,1.3-0.5H104.2z M104.2,34.3V22.7
		c0-0.1,0-0.2-0.1-0.3s-0.2-0.1-0.3-0.1h-7.4c-0.1,0-0.2,0-0.3,0.1s-0.1,0.2-0.1,0.3v11.6c0,0.1,0,0.2,0.1,0.3
		c0.1,0.1,0.2,0.1,0.3,0.1h7.4c0.1,0,0.2,0,0.3-0.1C104.2,34.5,104.2,34.4,104.2,34.3z M100,38.3c0.3,0,0.6-0.1,0.8-0.4
		c0.2-0.2,0.4-0.5,0.4-0.8c0-0.3-0.1-0.6-0.4-0.8c-0.2-0.2-0.5-0.4-0.8-0.4s-0.6,0.1-0.8,0.4c-0.2,0.2-0.4,0.5-0.4,0.8
		c0,0.3,0.1,0.6,0.4,0.8C99.4,38.2,99.7,38.3,100,38.3z"/>
</symbol>
<symbol id="phone" viewBox="90 0 20 20" fill="#ffffff">
	<path d="M109.1,0.9c0.2,0,0.4,0.1,0.5,0.3s0.2,0.4,0.2,0.6c0,3.3-0.7,6.3-2.3,9.1c-1.6,2.7-3.7,4.9-6.4,6.6c-2.8,1.7-5.8,2.5-9,2.6
		c-0.2,0-0.4-0.1-0.6-0.2c-0.2-0.1-0.3-0.3-0.3-0.5l-1-4c-0.1-0.2,0-0.4,0.1-0.6c0.1-0.2,0.3-0.4,0.5-0.4l4.3-1.9
		c0.2-0.1,0.4-0.1,0.6-0.1c0.2,0,0.4,0.1,0.5,0.3l1.9,2.3c1.5-0.7,2.8-1.7,4-2.9c1.2-1.2,2.1-2.6,2.7-4.1l-2.3-2
		c-0.2-0.1-0.3-0.3-0.3-0.5c-0.1-0.2,0-0.4,0-0.6l1.8-4.4c0.1-0.2,0.2-0.3,0.4-0.4C104.6,0,104.8,0,105,0L109.1,0.9z"/>
</symbol>
<symbol id="arrow_down_s" viewBox="74 14 14 8" fill="#ffffff">
	<path d="M88,15c0,0.3-0.1,0.5-0.3,0.7l-6,6c-0.4,0.4-1,0.4-1.4,0l-6-6c-0.4-0.4-0.4-1,0-1.4s1-0.4,1.4,0l5.3,5.3l5.3-5.3
		c0.4-0.4,1-0.4,1.4,0C87.9,14.5,88,14.7,88,15z"/>
</symbol>
<symbol id="arrow_right_s" viewBox="0 82 8 14" fill="#ffffff">
	<path d="M83,0c0.3,0,0.5,0.1,0.7,0.3l6,6c0.4,0.4,0.4,1,0,1.4l-6,6c-0.4,0.4-1,0.4-1.4,0s-0.4-1,0-1.4L87.6,7l-5.3-5.3
		c-0.4-0.4-0.4-1,0-1.4C82.5,0.1,82.7,0,83,0z"/>
</symbol>
<symbol id="arrow_left_s" viewBox="0 74 8 14" fill="#ffffff">
	<path d="M81,14c-0.3,0-0.5-0.1-0.7-0.3l-6-6c-0.4-0.4-0.4-1,0-1.4l6-6c0.4-0.4,1-0.4,1.4,0s0.4,1,0,1.4L76.4,7l5.3,5.3
		c0.4,0.4,0.4,1,0,1.4C81.5,13.9,81.3,14,81,14z"/>
</symbol>
<symbol id="arrow_down_m" viewBox="44 28 28 15" fill="#ffffff">
	<path d="M72,29c0,0.3-0.1,0.5-0.3,0.7l-13,13c-0.4,0.4-1,0.4-1.4,0l-13-13c-0.4-0.4-0.4-1,0-1.4c0.4-0.4,1-0.4,1.4,0L58,40.6
		l12.3-12.3c0.4-0.4,1-0.4,1.4,0C71.9,28.5,72,28.7,72,29z"/>
</symbol>
<symbol id="arrow_right_m" viewBox="0 59 15 28" fill="#ffffff">
	<path d="M60,0c0.3,0,0.5,0.1,0.7,0.3l13,13c0.4,0.4,0.4,1,0,1.4l-13,13c-0.4,0.4-1,0.4-1.4,0s-0.4-1,0-1.4L71.6,14L59.3,1.7
		c-0.4-0.4-0.4-1,0-1.4C59.5,0.1,59.7,0,60,0z"/>
</symbol>
<symbol id="arrow_left_m" viewBox="0 44 15 28" fill="#ffffff">
	<path d="M58,28c-0.3,0-0.5-0.1-0.7-0.3l-13-13c-0.4-0.4-0.4-1,0-1.4l13-13c0.4-0.4,1-0.4,1.4,0s0.4,1,0,1.4L46.4,14l12.3,12.3
		c0.4,0.4,0.4,1,0,1.4C58.5,27.9,58.3,28,58,28z"/>
</symbol>
<symbol id="arrow_down_l" viewBox="0 42 42 22" fill="#ffffff">
	<path d="M42,43c0,0.3-0.1,0.5-0.3,0.7l-20,20c-0.4,0.4-1,0.4-1.4,0l-20-20c-0.4-0.4-0.4-1,0-1.4c0.4-0.4,1-0.4,1.4,0L21,61.6
		l19.3-19.3c0.4-0.4,1-0.4,1.4,0C41.9,42.5,42,42.7,42,43z"/>
</symbol>
<symbol id="arrow_right_l" viewBox="22 0 22 42" fill="#ffffff">
	<path d="M23,0c0.3,0,0.5,0.1,0.7,0.3l20,20c0.4,0.4,0.4,1,0,1.4l-20,20c-0.4,0.4-1,0.4-1.4,0s-0.4-1,0-1.4L41.6,21L22.3,1.7
		c-0.4-0.4-0.4-1,0-1.4C22.5,0.1,22.7,0,23,0z"/>
</symbol>
<symbol id="arrow_left_l" viewBox="0 0 22 42" fill="#ffffff">
	<path d="M21,42c-0.3,0-0.5-0.1-0.7-0.3l-20-20c-0.4-0.4-0.4-1,0-1.4l20-20c0.4-0.4,1-0.4,1.4,0s0.4,1,0,1.4L2.4,21l19.3,19.3
		c0.4,0.4,0.4,1,0,1.4C21.5,41.9,21.3,42,21,42z"/>
</symbol>
<symbol id="clock" viewBox="0 0 20 20" fill="#ffffff">
  <path d="M10,0c1.8,0,3.5,0.5,5,1.4c1.5,0.9,2.8,2.1,3.6,3.7c0.9,1.5,1.4,3.2,1.4,5c0,1.8-0.5,3.5-1.4,5c-0.9,1.5-2.1,2.8-3.6,3.6
			c-1.5,0.9-3.2,1.4-5,1.4c-1.8,0-3.5-0.5-5-1.4c-1.5-0.9-2.8-2.1-3.7-3.6C0.5,13.5,0,11.8,0,10c0-1.8,0.5-3.5,1.4-5
			C2.2,3.5,3.5,2.2,5,1.4C6.5,0.5,8.2,0,10,0z M12.3,14.1c0.1,0.1,0.2,0.1,0.4,0.1c0.1,0,0.3-0.1,0.3-0.2l1.1-1.5
			c0.1-0.1,0.1-0.2,0.1-0.4c0-0.1-0.1-0.3-0.2-0.3l-2.6-1.9V4.3c0-0.1,0-0.3-0.1-0.3c-0.1-0.1-0.2-0.1-0.3-0.1H9
			C8.9,3.9,8.8,3.9,8.7,4C8.6,4.1,8.6,4.2,8.5,4.3v6.8c0,0.2,0.1,0.3,0.2,0.4L12.3,14.1z"/> 
</symbol>

<symbol id="shop_mini" viewBox="0 0 24 20" fill="#ffffff">
  	<path d="M24,7.5V6.2L22.5,0H1.7L0,6.2v1.4h1.7v9.8H0.5V20h23.1v-2.7h-1.2V7.5H24z M4.5,16V7.5h6V16H4.5z M20,16h-6V7.5h6V16z"/>
		<rect x="16.9" y="7.8" transform="matrix(0.7071 -0.7071 0.7071 0.7071 -1.893 15.0376)" width="0.6" height="4"/>
		<rect x="16.1" y="9.4" transform="matrix(0.7071 -0.7071 0.7071 0.7071 -2.7623 14.7301)" width="0.6" height="2.6"/>

</symbol>

<symbol id="shop1" viewBox="0 0 110 75.8">
  <path d="M105.3,31.4c2.8-0.9,4.7-3.6,4.7-6.5L105.3,0H4.3L0,24.9c0,2.8,1.7,5.3,4.3,6.4v36.5H0.7v8.1h108.1v-8.1h-3.5V31.4z
			 M39,62.9H12.7V28.5c0.7-1.1,1.1-2.3,1.1-3.6c-0.1,3.8,2.8,7,6.6,7.1c3.8,0.1,7-2.8,7.1-6.6c0-0.2,0-0.3,0-0.5
			c0,3.8,3.1,6.9,6.9,6.9c1.7,0,3.4-0.6,4.6-1.8V62.9z M58.3,62.9H46.2V31.5c0.6,0.2,1.3,0.3,1.9,0.3c3.8,0,6.9-3.1,6.9-6.9
			c0,2.4,1.3,4.6,3.3,5.9L58.3,62.9z M96.9,62.9H65.5V30.7c2-1.3,3.2-3.4,3.2-5.8c-0.1,3.8,2.8,7,6.6,7.1c3.8,0.1,7-2.8,7.1-6.6
			c0-0.2,0-0.3,0-0.5c-0.1,3.8,2.8,7,6.6,7.1c3.8,0.1,7-2.8,7.1-6.6c0-0.2,0-0.3,0-0.5c0,1,0.2,1.9,0.6,2.8L96.9,62.9z"/>
		<rect x="83.3" y="30.7" transform="matrix(0.6428 -0.766 0.766 0.6428 -2.6954 79.8479)" width="2" height="24.3"/>
		<rect x="79.2" y="39.3" transform="matrix(0.6428 -0.766 0.766 0.6428 -6.4537 77.8201)" width="2" height="13.1"/>
</symbol>

<symbol id="shop2" viewBox="0 0 110 83.2">
  <path d="M108.5,23.8h-0.3L103.7,0H5.9L1.8,23.8H1.5c-0.9,0.1-1.5,0.8-1.4,1.7c0.1,0.8,0.7,1.4,1.4,1.4v4c0,0,0.5,0.4,7.4,0.5v42.8
			H3.8v8.2h102.9v-8.2h-5.1V30.7c4.4,0.1,6.9,0.2,6.9,0.2c-0.7-1.2-0.9-2.7-0.5-4h0.5c0.9-0.1,1.5-0.8,1.4-1.7
			C109.8,24.5,109.2,23.9,108.5,23.8L108.5,23.8z M16.5,31.4c4.8,0,11.2-0.2,19.6-0.5c6.1-0.2,11.9-0.3,17.4-0.4v38.8h-37L16.5,31.4
			z M94,69.2H60V30.4c13.9-0.2,25.6,0,34,0.1V69.2z"/>
		<rect x="80.1" y="31.3" transform="matrix(0.6428 -0.766 0.766 0.6428 -4.4355 77.6949)" width="2.1" height="24.7"/>
		<rect x="75.9" y="40" transform="matrix(0.6428 -0.766 0.766 0.6428 -8.2765 75.6425)" width="2.1" height="13.4"/>  
</symbol>

</svg>