<svg xmlns="http://www.w3.org/2000/svg" style="display: none;">

<symbol id="envelope" viewBox="90 40 20 20" fill="#fff">
	<path d="M100,52.5c-0.3,0-0.8-0.2-1.2-0.5c-0.3-0.2-0.7-0.4-1.2-0.9l-0.4-0.3c-3.2-2.3-5.4-4-6.5-4.8l-0.3-0.2
		c-0.2-0.2-0.4-0.4-0.4-0.7v-0.7c0-0.5,0.2-1,0.5-1.3c0.4-0.4,0.8-0.5,1.3-0.5H108c0.5,0,1,0.2,1.3,0.5c0.4,0.4,0.5,0.8,0.5,1.3v0.7
		c0,0.3,0,0.7-0.3,0.9s-3.3,2.5-6.6,4.9l-0.4,0.3c-0.5,0.4-0.9,0.7-1.2,0.9C100.8,52.3,100.3,52.5,100,52.5z M109.6,47.5
		c-0.9,0.7-2.9,2.2-6,4.4l-0.4,0.3c-0.6,0.5-1.1,0.8-1.5,1c-0.6,0.4-1.2,0.5-1.7,0.5s-1.1-0.2-1.7-0.5c-0.4-0.2-0.9-0.5-1.5-1
		l-0.4-0.4c-3.2-2.3-5.2-3.8-6-4.4c-0.1-0.1-0.2-0.1-0.3,0c-0.1,0-0.1,0.1-0.1,0.2v8c0,0.5,0.2,1,0.5,1.3c0.4,0.4,0.8,0.5,1.3,0.5
		H108c0.5,0,1-0.2,1.3-0.5c0.4-0.4,0.5-0.8,0.5-1.3v-8c0-0.1,0-0.2-0.1-0.2C109.8,47.4,109.7,47.4,109.6,47.5z"/>
</symbol>
<symbol id="mobile" viewBox="90 20 20 20"  fill="#fff">
<path d="M104.2,20.5c0.5,0,0.9,0.2,1.3,0.5s0.5,0.8,0.5,1.3v15.4c0,0.5-0.2,0.9-0.5,1.3c-0.3,0.3-0.8,0.5-1.3,0.5h-8.3
		c-0.5,0-0.9-0.2-1.3-0.5c-0.3-0.3-0.5-0.8-0.5-1.3V22.3c0-0.5,0.2-0.9,0.5-1.3s0.8-0.5,1.3-0.5H104.2z M104.2,34.3V22.7
		c0-0.1,0-0.2-0.1-0.3s-0.2-0.1-0.3-0.1h-7.4c-0.1,0-0.2,0-0.3,0.1s-0.1,0.2-0.1,0.3v11.6c0,0.1,0,0.2,0.1,0.3
		c0.1,0.1,0.2,0.1,0.3,0.1h7.4c0.1,0,0.2,0,0.3-0.1C104.2,34.5,104.2,34.4,104.2,34.3z M100,38.3c0.3,0,0.6-0.1,0.8-0.4
		c0.2-0.2,0.4-0.5,0.4-0.8c0-0.3-0.1-0.6-0.4-0.8c-0.2-0.2-0.5-0.4-0.8-0.4s-0.6,0.1-0.8,0.4c-0.2,0.2-0.4,0.5-0.4,0.8
		c0,0.3,0.1,0.6,0.4,0.8C99.4,38.2,99.7,38.3,100,38.3z"/>
</symbol>
<symbol id="phone" viewBox="90 0 20 20"  fill="#fff">
	<path d="M109.1,0.9c0.2,0,0.4,0.1,0.5,0.3s0.2,0.4,0.2,0.6c0,3.3-0.7,6.3-2.3,9.1c-1.6,2.7-3.7,4.9-6.4,6.6c-2.8,1.7-5.8,2.5-9,2.6
		c-0.2,0-0.4-0.1-0.6-0.2c-0.2-0.1-0.3-0.3-0.3-0.5l-1-4c-0.1-0.2,0-0.4,0.1-0.6c0.1-0.2,0.3-0.4,0.5-0.4l4.3-1.9
		c0.2-0.1,0.4-0.1,0.6-0.1c0.2,0,0.4,0.1,0.5,0.3l1.9,2.3c1.5-0.7,2.8-1.7,4-2.9c1.2-1.2,2.1-2.6,2.7-4.1l-2.3-2
		c-0.2-0.1-0.3-0.3-0.3-0.5c-0.1-0.2,0-0.4,0-0.6l1.8-4.4c0.1-0.2,0.2-0.3,0.4-0.4C104.6,0,104.8,0,105,0L109.1,0.9z"/>
</symbol>
<symbol id="arrow_down_s" viewBox="74 14 14 8"  fill="#fff">
	<path d="M88,15c0,0.3-0.1,0.5-0.3,0.7l-6,6c-0.4,0.4-1,0.4-1.4,0l-6-6c-0.4-0.4-0.4-1,0-1.4s1-0.4,1.4,0l5.3,5.3l5.3-5.3
		c0.4-0.4,1-0.4,1.4,0C87.9,14.5,88,14.7,88,15z"/>
</symbol>
<symbol id="arrow_right_s" viewBox="0 82 8 14"  fill="#fff">
	<path d="M83,0c0.3,0,0.5,0.1,0.7,0.3l6,6c0.4,0.4,0.4,1,0,1.4l-6,6c-0.4,0.4-1,0.4-1.4,0s-0.4-1,0-1.4L87.6,7l-5.3-5.3
		c-0.4-0.4-0.4-1,0-1.4C82.5,0.1,82.7,0,83,0z"/>
</symbol>
<symbol id="arrow_left_s" viewBox="0 74 8 14"  fill="#fff">
	<path d="M81,14c-0.3,0-0.5-0.1-0.7-0.3l-6-6c-0.4-0.4-0.4-1,0-1.4l6-6c0.4-0.4,1-0.4,1.4,0s0.4,1,0,1.4L76.4,7l5.3,5.3
		c0.4,0.4,0.4,1,0,1.4C81.5,13.9,81.3,14,81,14z"/>
</symbol>
<symbol id="arrow_down_m" viewBox="44 28 28 15"  fill="#fff">
	<path d="M72,29c0,0.3-0.1,0.5-0.3,0.7l-13,13c-0.4,0.4-1,0.4-1.4,0l-13-13c-0.4-0.4-0.4-1,0-1.4c0.4-0.4,1-0.4,1.4,0L58,40.6
		l12.3-12.3c0.4-0.4,1-0.4,1.4,0C71.9,28.5,72,28.7,72,29z"/>
</symbol>
<symbol id="arrow_right_m" viewBox="0 59 15 28"  fill="#fff">
	<path d="M60,0c0.3,0,0.5,0.1,0.7,0.3l13,13c0.4,0.4,0.4,1,0,1.4l-13,13c-0.4,0.4-1,0.4-1.4,0s-0.4-1,0-1.4L71.6,14L59.3,1.7
		c-0.4-0.4-0.4-1,0-1.4C59.5,0.1,59.7,0,60,0z"/>
</symbol>
<symbol id="arrow_left_m" viewBox="0 44 15 28"  fill="#fff">
	<path d="M58,28c-0.3,0-0.5-0.1-0.7-0.3l-13-13c-0.4-0.4-0.4-1,0-1.4l13-13c0.4-0.4,1-0.4,1.4,0s0.4,1,0,1.4L46.4,14l12.3,12.3
		c0.4,0.4,0.4,1,0,1.4C58.5,27.9,58.3,28,58,28z"/>
</symbol>
<symbol id="arrow_down_l" viewBox="0 42 42 22"  fill="#fff">
	<path d="M42,43c0,0.3-0.1,0.5-0.3,0.7l-20,20c-0.4,0.4-1,0.4-1.4,0l-20-20c-0.4-0.4-0.4-1,0-1.4c0.4-0.4,1-0.4,1.4,0L21,61.6
		l19.3-19.3c0.4-0.4,1-0.4,1.4,0C41.9,42.5,42,42.7,42,43z"/>
</symbol>
<symbol id="arrow_right_l" viewBox="22 0 22 42"  fill="#fff">
	<path d="M23,0c0.3,0,0.5,0.1,0.7,0.3l20,20c0.4,0.4,0.4,1,0,1.4l-20,20c-0.4,0.4-1,0.4-1.4,0s-0.4-1,0-1.4L41.6,21L22.3,1.7
		c-0.4-0.4-0.4-1,0-1.4C22.5,0.1,22.7,0,23,0z"/>
</symbol>
<symbol id="arrow_left_l" viewBox="0 0 22 42"  fill="#fff">
	<path d="M21,42c-0.3,0-0.5-0.1-0.7-0.3l-20-20c-0.4-0.4-0.4-1,0-1.4l20-20c0.4-0.4,1-0.4,1.4,0s0.4,1,0,1.4L2.4,21l19.3,19.3
		c0.4,0.4,0.4,1,0,1.4C21.5,41.9,21.3,42,21,42z"/>
</symbol>
</svg>
